<svg width="286" height="72" viewBox="0 0 286 72" fill="none" xmlns="http://www.w3.org/2000/svg">
<rect width="286" height="72" fill="#F55742"/>
<path d="M31.24 39.04H20.36V51H15.24V21.76H33.32V26.48H20.36V34.44H31.24V39.04ZM42.7353 51V21.76H54.3753C60.1353 21.76 63.6553 24.76 63.6553 29.64C63.6553 32.88 62.2153 35.2 59.4553 36.36C62.5353 37.36 64.0953 39.68 64.0953 43.08C64.0953 48.08 60.6153 51 54.5753 51H42.7353ZM53.9353 26.28H47.8553V34.24H54.0553C56.8553 34.24 58.4153 32.76 58.4153 30.16C58.4153 27.64 56.8153 26.28 53.9353 26.28ZM54.3753 38.56H47.8553V46.48H54.3753C57.2553 46.48 58.8553 45.08 58.8553 42.44C58.8553 39.96 57.2153 38.56 54.3753 38.56ZM100.27 36.36C100.27 45.24 94.43 51.48 86.03 51.48C77.67 51.48 71.91 45.28 71.91 36.36C71.91 27.48 77.71 21.24 86.07 21.24C94.43 21.24 100.27 27.44 100.27 36.36ZM94.87 36.36C94.87 30.12 91.43 26.16 86.07 26.16C80.71 26.16 77.27 30.12 77.27 36.36C77.27 42.6 80.71 46.56 86.07 46.56C91.43 46.56 94.87 42.52 94.87 36.36ZM114.875 51H109.835V21.76H114.915L128.635 42.48V21.76H133.675V51H128.635L114.875 30.28V51ZM150.068 21.76V51H144.948V21.76H150.068ZM166.469 21.76V46.28H178.709V51H161.349V21.76H166.469ZM192.793 21.76V46.28H205.033V51H187.673V21.76H192.793ZM217.298 51H211.978L222.538 21.76H227.778L238.338 51H232.938L230.578 44.24H219.658L217.298 51ZM224.498 30.48L221.178 39.92H229.098L225.738 30.48C225.498 29.72 225.218 28.84 225.138 28.24C225.018 28.8 224.778 29.68 224.498 30.48Z" fill="#EAEAEA"/>
<path d="M243.032 30.264C243.032 24.816 245.96 21.12 250.448 21.12C254.936 21.12 257.888 24.816 257.888 30.264C257.888 35.688 255.104 39.312 250.448 39.312C245.792 39.312 243.032 35.688 243.032 30.264ZM246.056 30.264C246.056 34.32 247.688 36.6 250.448 36.6C253.232 36.6 254.864 34.32 254.864 30.264C254.864 26.112 253.232 23.832 250.448 23.832C247.688 23.832 246.056 26.112 246.056 30.264ZM272.194 38.976L260.026 39V36.696L265.762 31.848C268.138 29.832 268.93 28.68 268.93 27C268.93 25.008 267.85 23.88 266.002 23.88C264.082 23.88 262.882 25.224 262.858 27.48H259.81C259.834 23.64 262.282 21.144 266.002 21.144C269.746 21.144 272.074 23.28 272.074 26.832C272.074 29.28 270.73 31.128 268.066 33.408L264.898 36.12H272.194V38.976Z" fill="#EAEAEA"/>
</svg>
